<svg xmlns="http://www.w3.org/2000/svg" width="27.418" height="27.418" viewBox="0 0 27.418 27.418">
  <path id="pharmacy_1_" data-name="pharmacy (1)" d="M13.509,27.018a4.5,4.5,0,0,1-4.5-4.5v-4.5H4.5a4.5,4.5,0,0,1,0-9.006h4.5V4.5a4.5,4.5,0,1,1,9.006,0v4.5h4.5a4.5,4.5,0,0,1,0,9.006h-4.5v4.5A4.5,4.5,0,0,1,13.509,27.018ZM4.5,11.257a2.251,2.251,0,1,0,0,4.5h5.629a1.126,1.126,0,0,1,1.126,1.126v5.629a2.251,2.251,0,1,0,4.5,0V16.886a1.126,1.126,0,0,1,1.126-1.126h5.629a2.251,2.251,0,1,0,0-4.5H16.886a1.126,1.126,0,0,1-1.126-1.126V4.5a2.251,2.251,0,1,0-4.5,0v5.629a1.126,1.126,0,0,1-1.126,1.126Z" transform="translate(0.2 0.2)" fill="#292562" stroke="#27235d" stroke-width="0.4"/>
</svg>
