<svg xmlns="http://www.w3.org/2000/svg" width="22" height="24" viewBox="0 0 22 24">
  <path id="office-building-marker_1_" data-name="office-building-marker (1)" d="M18.187,25.737c-1.385-1.983-2.834-4.6-2.834-6.947a6.942,6.942,0,0,1,3.106-5.684h-.518V10.579h2.588v1.554a7.375,7.375,0,0,1,1.941-.291,3.636,3.636,0,0,1,.647.038V3H5V25.737h7.765V21.316h2.588v4.421h2.834M17.941,5.526h2.588V8.053H17.941V5.526M10.176,23.211H7.588V20.684h2.588v2.526m0-5.053H7.588V15.632h2.588v2.526m0-5.053H7.588V10.579h2.588v2.526m0-5.053H7.588V5.526h2.588V8.053m2.588-2.526h2.588V8.053H12.765V5.526m0,5.053h2.588v2.526H12.765V10.579m0,7.579V15.632h2.588v2.526H12.765m9.706-3.789a4.54,4.54,0,0,0-4.529,4.421c0,3.3,4.529,8.211,4.529,8.211S27,22.086,27,18.789a4.54,4.54,0,0,0-4.529-4.421m0,6.076a1.516,1.516,0,1,1,0-3.032,1.64,1.64,0,0,1,1.553,1.516A1.473,1.473,0,0,1,22.471,20.444Z" transform="translate(-5 -3)" fill="#9199b4"/>
</svg>
