<svg xmlns="http://www.w3.org/2000/svg" xmlns:xlink="http://www.w3.org/1999/xlink" width="85.132" height="37.5" viewBox="0 0 85.132 37.5">
  <defs>
    <linearGradient id="linear-gradient" x1="1" y1="0.417" x2="0" y2="1" gradientUnits="objectBoundingBox">
      <stop offset="0" stop-color="#141c4f"/>
      <stop offset="1" stop-color="#002b7f"/>
    </linearGradient>
    <clipPath id="clip-path">
      <path id="Path_254" data-name="Path 254" d="M524.42,189.994a.673.673,0,0,0,.329,0,.443.443,0,0,1,.457.034.421.421,0,0,0,.279.079c.4-.043,1.325-.028,1.579-.341a1.794,1.794,0,0,1,.212-.228c.408-.187-1.373-1.15-1.493-1.152a2.011,2.011,0,0,1-.407-.042Zm11.79,1.018a1.847,1.847,0,0,1,.739-.228c.306-.046.273-.121.525-.338.164-.141.707-.054.838-.227a.9.9,0,0,1,.428,0c.031.051.165.074.212.111.339.274.558.146.95.227a3.89,3.89,0,0,0,.724.116c.151-.1.251-.07.326.111a9.468,9.468,0,0,0,1.05.564.524.524,0,0,0,.243-.008c.114-.019.229-.039.284.008.019.017.724.3.724.334s-.065.1-.1.119a1.963,1.963,0,0,1-1.476,0,.954.954,0,0,0-.308.054,1.007,1.007,0,0,1-.318.054c-.033-.015-.195.087-.21.111-.088.128-.427.2-.581.225a1.105,1.105,0,0,1-.285-.018.821.821,0,0,0-.357-.005,3.482,3.482,0,0,1-2.359-.082.715.715,0,0,0-.166.058c-.215.083-.594.165-1-.408-.136-.192-.556-.189-.878-.187a1.184,1.184,0,0,1-.37-.025c-.157-.072-.171-.092-.1-.229.044-.086.215-.246.31-.227a5.652,5.652,0,0,0,.625,0,.525.525,0,0,1,.324,0l.01,0a.486.486,0,0,0,.191-.111m4.105-9.358a.781.781,0,0,0-.413.232c-.207.351-.625.294-.851.453-.053.038-.724,1.081-.842,1.13-.023.009-.248.44-1.2.441-.12,0-.544.234-.637.231-.706-.028-1.635-.611-1.833-.568a3.167,3.167,0,0,1-1.164.105c-.037-.006-1.63.085-1.681.118a.637.637,0,0,1-.424,0c-.332-.14-.578-.785-.94-.792a2.837,2.837,0,0,0-.3.018,1.146,1.146,0,0,1-.586-.041c-.242-.115-.207-.56-.434-.9l-1.425,2.458c.424.179.784.612,1.269.617a1.146,1.146,0,0,0,.574-.216c.264-.161.5-.322.692-.129a3.225,3.225,0,0,0,.313.224,6.593,6.593,0,0,0,2.857-.268c.309-.069.2.142-.059.354-.316.26-.853.519-1.11.262a3.187,3.187,0,0,0-1.162.179c-.419.1-.792.209-.807.2a.8.8,0,0,0-.421,0,4.992,4.992,0,0,0-1.271.5c-.056.038-.6,0-.66.042a2.049,2.049,0,0,1-.945.307,1.365,1.365,0,0,0-.438-.052l-.706,1.219a4.039,4.039,0,0,1,.623-.265c.262-.014.437.268.672.268.57,0,1.014-.859,1.543-.832.216.011.593.544.626.564a2.769,2.769,0,0,0,1.772.478c.212-.012.35-.026.44.083s-.028.447-.112.563c-.16.225-.167.823,2.317.563a4.878,4.878,0,0,1,1.426.02c1.183.169.478.641-.027.593a5.43,5.43,0,0,0-1.289.178c-.161.13-.51.319-.528.336-.258.258-1.778.541-1.9.682-.036.043.021.173,0,.226-.1.246-.581.223-1.025.2a2.621,2.621,0,0,0-.654.013c-.646.17-.645-.2-1.163-.331a.624.624,0,0,0-.309,0,1.9,1.9,0,0,1-.741.117,6.127,6.127,0,0,0-.839-.117c-.568-.248-1.9-.537-2.246-.675l-.108-.043-2.685,4.633a1.152,1.152,0,0,0,1.017,1.7h10.874a9.342,9.342,0,0,0-.012-1.58c-.027-.143-.09-.46-.209-.541-.012-.008-.034,0-.057,0a.1.1,0,0,1-.05,0c-.34-.15-.518-.538-.775-.816s-.442-.6-.7-.875c-.159-.17-.581-.419-.686-.625-.044-.089-.108-.314-.047-.392s.262-.07.343-.041c.245.089.237.271.391.5a2.9,2.9,0,0,0,1.08.851,2.291,2.291,0,0,0,.391.209.73.73,0,0,0,.349.046c.325-.125-.331-1.8-.082-2.019.058-.052.214.1.27.152s.089.211.155.23a10.561,10.561,0,0,0,1.672.217c.17,0,.615.107.623.277,0,.072-.2.09-.254.142a1.35,1.35,0,0,0-.11,1.237,16.332,16.332,0,0,1,.133,2c0,.075-.117.194-.133.267a1.458,1.458,0,0,0,.04.762h11.6a1.154,1.154,0,0,0,1.156-1.152,1.191,1.191,0,0,0-.152-.57l-3.456-5.97a.958.958,0,0,1-.668.043,2.258,2.258,0,0,0-.953,0c-.469.216-.267.438-1.045.45-.04,0-.068.1-.1.119a.867.867,0,0,1-.524,0,13.755,13.755,0,0,0-2.839-.569,2.956,2.956,0,0,1-1.053,0,.214.214,0,0,0-.044,0c-.022,0-.047.007-.057,0a.116.116,0,0,1,0-.113c.274-.273.857-.154,1.257-.217a3.3,3.3,0,0,1,.814,0,2.147,2.147,0,0,0,1.119-.115c.084-.036.665-.064.8-.107a2.776,2.776,0,0,0,.629-.565c.127-.159.057-.649.211-.783.02-.018.8-.57.833-.571.135-.006.131-.069.158-.092l-.907-1.566c-.055.025-.116.051-.185.079-.9.357-.907.776-.9.815.236,1.1-.343,1.855-1.384,1.724s-.982-.452-1.723.278a1.654,1.654,0,0,1-1.25.349,3.571,3.571,0,0,1-1.377,0,1.943,1.943,0,0,0-.816.012,2.063,2.063,0,0,1-.974-.012c-.357-.165-1.863-.179-2.211-.711-.113-.172-.877-.086-1.141-.2-.235-.1.87-.506.939-.562a1.117,1.117,0,0,1,.675-.077,1.4,1.4,0,0,0,.586-.037c.159-.076.989-.059,1.152-.223.06-.06,1.1-.851,1.352-.652.122.093.466.424.548.425.507,0,1.009.308,1.465.113.615-.263.264-.9,1.052-.9a3.788,3.788,0,0,1,1.064-.119c.455.11.726.191.939-.229a1.244,1.244,0,0,1,.112-.224,6.778,6.778,0,0,1,1.854-.241l-.42-.726a1.616,1.616,0,0,1-1.015-.174,3.111,3.111,0,0,0-.418-.2c-.233.136-.922.447-1.051.213a2.883,2.883,0,0,1,.1-.561c0-.039.3-.538.318-.562a.394.394,0,0,1,.311-.114c.208.065.532-.207.79-.273l-.255-.44a.533.533,0,0,0-.256-.082.333.333,0,0,0-.067.007m-5.825-3.12a2.181,2.181,0,0,1,.47-.082c.245-.021.917-.27.925.438,0,.109.2.219.284.221a1.6,1.6,0,0,0,.21-.009c.159-.017.191-.032.467.138a1.419,1.419,0,0,0,.712.2,3.717,3.717,0,0,0,.411.01c1.1-.305-.106.646-.237.692a1.7,1.7,0,0,1-.339,0,2.808,2.808,0,0,0-.547,0,1.785,1.785,0,0,1-.474.105c-.351-.07-.254-.07-.487,0-.061.019-.2.127-.235.117-.482-.116-.582.09-1.037.113-.166.007-.476-.209-.641-.231a1.122,1.122,0,0,1-.962-.441c-.034-.046-.174.008-.356.064a1.138,1.138,0,0,1-.683.042,1.061,1.061,0,0,1-.483-.345,2.464,2.464,0,0,1,.883-.451,1.68,1.68,0,0,0,.316-.11c.289-.433.354-.165.8-.452a.824.824,0,0,1,.415,0,2.521,2.521,0,0,0,.314.025.755.755,0,0,0,.272-.042m-.581-4.91-4.4,7.594a3.591,3.591,0,0,0,.506-.125,2.356,2.356,0,0,1,1.157.272,5.277,5.277,0,0,0,.739.288,8.775,8.775,0,0,0,1.153-.331c.115-.05.532.214.634.221a3.78,3.78,0,0,0,1.193-.055,2.83,2.83,0,0,1,.93-.063c.028,0,1.617.074,1.742.034.088-.028.771-.424.857-.46.218-.094.441-.275.746-.134a2.89,2.89,0,0,0,.739.228.529.529,0,0,1,.308-.1l-4.26-7.351a1.147,1.147,0,0,0-2.041-.016" transform="translate(-521.359 -173.009)" fill="#fff"/>
    </clipPath>
  </defs>
  <g id="HEADER" transform="translate(0.635 -0.885)">
    <g id="Group_2604" data-name="Group 2604" transform="translate(0 0.885)">
      <g id="Group_232" data-name="Group 232">
        <rect id="Rectangle_31" data-name="Rectangle 31" width="83.76" height="1.24" rx="0.62" transform="translate(0 28.009)" fill="#e50019"/>
        <path id="Union_1" data-name="Union 1" d="M0,8.867c0-.013,0-.416,0-.416a.4.4,0,0,1,.4-.4H1.891a.4.4,0,0,1,.4.4v.274c0,.541.6.835,1.124.835.546,0,1.137-.294,1.137-.835V7.674a.731.731,0,0,0-.615-.692C2.1,6.7,2.051,5.381,2.043,4.195V3.956H.789A.407.407,0,0,1,.381,3.55V2.506A.408.408,0,0,1,.789,2.1H2.043V.612A.408.408,0,0,1,2.451.206H3.984a.407.407,0,0,1,.408.406V2.1H5.7a.409.409,0,0,1,.408.407V3.55a.408.408,0,0,1-.408.406H4.391v.562a.711.711,0,0,0,.6.729c1.122.338,1.854.731,1.854,2.32V8.861H6.837a3.16,3.16,0,0,1-3.421,2.9A3.165,3.165,0,0,1,0,8.867Zm49.033,2.9a.4.4,0,0,1-.4-.4V3.039c0-.541-.591-.835-1.12-.835-.546,0-1.138.294-1.138.835v8.328a.4.4,0,0,1-.4.4h-1.5a.4.4,0,0,1-.4-.4V3.039C44.082,1.019,45.8.016,47.515,0c1.7.016,3.415,1.019,3.415,3.039v8.328a.4.4,0,0,1-.4.4Zm-17.908,0a.4.4,0,0,1-.4-.4V3.039c0-.541-.591-.835-1.119-.835-.546,0-1.138.294-1.138.835v8.328a.4.4,0,0,1-.4.4h-1.5a.4.4,0,0,1-.4-.4V3.039c0-2.019,1.717-3.023,3.433-3.039,1.7.016,3.415,1.019,3.415,3.039v8.328a.4.4,0,0,1-.4.4Zm-17.9,0a.4.4,0,0,1-.4-.4V3.039c0-.541-.591-.835-1.119-.835-.546,0-1.138.294-1.138.835v8.328a.4.4,0,0,1-.4.4h-1.5a.4.4,0,0,1-.4-.4V3.039C8.276,1.019,9.995.016,11.71,0c1.7.016,3.415,1.019,3.415,3.039v8.328a.4.4,0,0,1-.4.4ZM35.809,8.725l0-.3a.376.376,0,0,1,.377-.376h1.544a.376.376,0,0,1,.377.376V8.75c.019.524.6.81,1.121.81.545,0,1.137-.294,1.137-.835V6.5c0-1.288-3.424-4.331-3.424-5.734V.386A.388.388,0,0,1,37.326,0h1.6a.38.38,0,0,1,.367.292,5.825,5.825,0,0,0,.885,1.559c.855,1.225,2.5,2.957,2.5,4.173v2.7c0,2.018-1.733,3.023-3.447,3.038C37.526,11.748,35.809,10.744,35.809,8.725Zm-17.91,0V8.452a.4.4,0,0,1,.4-.4h1.5a.4.4,0,0,1,.4.4v.3c.019.525.6.811,1.12.811.544,0,1.135-.294,1.136-.834V7.955A1.04,1.04,0,0,0,21.338,6.9h-.65V4.831l.633,0a.681.681,0,0,0,.719-.776C22.04,3,19.028,1.787,19.028.766V.4a.4.4,0,0,1,.4-.4h1.634c.187,0,.244.087.38.306,0,0,.095.142.127.178,1.518,1.635,2.756,2.033,2.756,3.58A1.545,1.545,0,0,1,23.3,5.715a2.471,2.471,0,0,1,1.451,2.391l0,.359,0,0v.259c0,.016,0,.03,0,.046v.091l0,0a3.162,3.162,0,0,1-3.424,2.9C19.616,11.748,17.9,10.743,17.9,8.725Z" transform="translate(0.092 12.007)" fill="#292562" stroke="rgba(0,0,0,0)" stroke-width="1"/>
        <path id="Path_253" data-name="Path 253" d="M524.42,189.994a.673.673,0,0,0,.329,0,.443.443,0,0,1,.457.034.421.421,0,0,0,.279.079c.4-.043,1.325-.028,1.579-.341a1.794,1.794,0,0,1,.212-.228c.408-.187-1.373-1.15-1.493-1.152a2.011,2.011,0,0,1-.407-.042Zm11.79,1.018a1.847,1.847,0,0,1,.739-.228c.306-.046.273-.121.525-.338.164-.141.707-.054.838-.227a.9.9,0,0,1,.428,0c.031.051.165.074.212.111.339.274.558.146.95.227a3.89,3.89,0,0,0,.724.116c.151-.1.251-.07.326.111a9.468,9.468,0,0,0,1.05.564.524.524,0,0,0,.243-.008c.114-.019.229-.039.284.008.019.017.724.3.724.334s-.065.1-.1.119a1.963,1.963,0,0,1-1.476,0,.954.954,0,0,0-.308.054,1.007,1.007,0,0,1-.318.054c-.033-.015-.195.087-.21.111-.088.128-.427.2-.581.225a1.105,1.105,0,0,1-.285-.018.821.821,0,0,0-.357-.005,3.482,3.482,0,0,1-2.359-.082.715.715,0,0,0-.166.058c-.215.083-.594.165-1-.408-.136-.192-.556-.189-.878-.187a1.184,1.184,0,0,1-.37-.025c-.157-.072-.171-.092-.1-.229.044-.086.215-.246.31-.227a5.652,5.652,0,0,0,.625,0,.525.525,0,0,1,.324,0l.01,0a.486.486,0,0,0,.191-.111m4.105-9.358a.781.781,0,0,0-.413.232c-.207.351-.625.294-.851.453-.053.038-.724,1.081-.842,1.13-.023.009-.248.44-1.2.441-.12,0-.544.234-.637.231-.706-.028-1.635-.611-1.833-.568a3.167,3.167,0,0,1-1.164.105c-.037-.006-1.63.085-1.681.118a.637.637,0,0,1-.424,0c-.332-.14-.578-.785-.94-.792a2.837,2.837,0,0,0-.3.018,1.146,1.146,0,0,1-.586-.041c-.242-.115-.207-.56-.434-.9l-1.425,2.458c.424.179.784.612,1.269.617a1.146,1.146,0,0,0,.574-.216c.264-.161.5-.322.692-.129a3.225,3.225,0,0,0,.313.224,6.593,6.593,0,0,0,2.857-.268c.309-.069.2.142-.059.354-.316.26-.853.519-1.11.262a3.187,3.187,0,0,0-1.162.179c-.419.1-.792.209-.807.2a.8.8,0,0,0-.421,0,4.992,4.992,0,0,0-1.271.5c-.056.038-.6,0-.66.042a2.049,2.049,0,0,1-.945.307,1.365,1.365,0,0,0-.438-.052l-.706,1.219a4.039,4.039,0,0,1,.623-.265c.262-.014.437.268.672.268.57,0,1.014-.859,1.543-.832.216.011.593.544.626.564a2.769,2.769,0,0,0,1.772.478c.212-.012.35-.026.44.083s-.028.447-.112.563c-.16.225-.167.823,2.317.563a4.878,4.878,0,0,1,1.426.02c1.183.169.478.641-.027.593a5.43,5.43,0,0,0-1.289.178c-.161.13-.51.319-.528.336-.258.258-1.778.541-1.9.682-.036.043.021.173,0,.226-.1.246-.581.223-1.025.2a2.621,2.621,0,0,0-.654.013c-.646.17-.645-.2-1.163-.331a.624.624,0,0,0-.309,0,1.9,1.9,0,0,1-.741.117,6.127,6.127,0,0,0-.839-.117c-.568-.248-1.9-.537-2.246-.675l-.108-.043-2.685,4.633a1.152,1.152,0,0,0,1.017,1.7h10.874a9.342,9.342,0,0,0-.012-1.58c-.027-.143-.09-.46-.209-.541-.012-.008-.034,0-.057,0a.1.1,0,0,1-.05,0c-.34-.15-.518-.538-.775-.816s-.442-.6-.7-.875c-.159-.17-.581-.419-.686-.625-.044-.089-.108-.314-.047-.392s.262-.07.343-.041c.245.089.237.271.391.5a2.9,2.9,0,0,0,1.08.851,2.291,2.291,0,0,0,.391.209.73.73,0,0,0,.349.046c.325-.125-.331-1.8-.082-2.019.058-.052.214.1.27.152s.089.211.155.23a10.561,10.561,0,0,0,1.672.217c.17,0,.615.107.623.277,0,.072-.2.09-.254.142a1.35,1.35,0,0,0-.11,1.237,16.332,16.332,0,0,1,.133,2c0,.075-.117.194-.133.267a1.458,1.458,0,0,0,.04.762h11.6a1.154,1.154,0,0,0,1.156-1.152,1.191,1.191,0,0,0-.152-.57l-3.456-5.97a.958.958,0,0,1-.668.043,2.258,2.258,0,0,0-.953,0c-.469.216-.267.438-1.045.45-.04,0-.068.1-.1.119a.867.867,0,0,1-.524,0,13.755,13.755,0,0,0-2.839-.569,2.956,2.956,0,0,1-1.053,0,.214.214,0,0,0-.044,0c-.022,0-.047.007-.057,0a.116.116,0,0,1,0-.113c.274-.273.857-.154,1.257-.217a3.3,3.3,0,0,1,.814,0,2.147,2.147,0,0,0,1.119-.115c.084-.036.665-.064.8-.107a2.776,2.776,0,0,0,.629-.565c.127-.159.057-.649.211-.783.02-.018.8-.57.833-.571.135-.006.131-.069.158-.092l-.907-1.566c-.055.025-.116.051-.185.079-.9.357-.907.776-.9.815.236,1.1-.343,1.855-1.384,1.724s-.982-.452-1.723.278a1.654,1.654,0,0,1-1.25.349,3.571,3.571,0,0,1-1.377,0,1.943,1.943,0,0,0-.816.012,2.063,2.063,0,0,1-.974-.012c-.357-.165-1.863-.179-2.211-.711-.113-.172-.877-.086-1.141-.2-.235-.1.87-.506.939-.562a1.117,1.117,0,0,1,.675-.077,1.4,1.4,0,0,0,.586-.037c.159-.076.989-.059,1.152-.223.06-.06,1.1-.851,1.352-.652.122.093.466.424.548.425.507,0,1.009.308,1.465.113.615-.263.264-.9,1.052-.9a3.788,3.788,0,0,1,1.064-.119c.455.11.726.191.939-.229a1.244,1.244,0,0,1,.112-.224,6.778,6.778,0,0,1,1.854-.241l-.42-.726a1.616,1.616,0,0,1-1.015-.174,3.111,3.111,0,0,0-.418-.2c-.233.136-.922.447-1.051.213a2.883,2.883,0,0,1,.1-.561c0-.039.3-.538.318-.562a.394.394,0,0,1,.311-.114c.208.065.532-.207.79-.273l-.255-.44a.533.533,0,0,0-.256-.082.333.333,0,0,0-.067.007m-5.825-3.12a2.181,2.181,0,0,1,.47-.082c.245-.021.917-.27.925.438,0,.109.2.219.284.221a1.6,1.6,0,0,0,.21-.009c.159-.017.191-.032.467.138a1.419,1.419,0,0,0,.712.2,3.717,3.717,0,0,0,.411.01c1.1-.305-.106.646-.237.692a1.7,1.7,0,0,1-.339,0,2.808,2.808,0,0,0-.547,0,1.785,1.785,0,0,1-.474.105c-.351-.07-.254-.07-.487,0-.061.019-.2.127-.235.117-.482-.116-.582.09-1.037.113-.166.007-.476-.209-.641-.231a1.122,1.122,0,0,1-.962-.441c-.034-.046-.174.008-.356.064a1.138,1.138,0,0,1-.683.042,1.061,1.061,0,0,1-.483-.345,2.464,2.464,0,0,1,.883-.451,1.68,1.68,0,0,0,.316-.11c.289-.433.354-.165.8-.452a.824.824,0,0,1,.415,0,2.521,2.521,0,0,0,.314.025.755.755,0,0,0,.272-.042m-.581-4.91-4.4,7.594a3.591,3.591,0,0,0,.506-.125,2.356,2.356,0,0,1,1.157.272,5.277,5.277,0,0,0,.739.288,8.775,8.775,0,0,0,1.153-.331c.115-.05.532.214.634.221a3.78,3.78,0,0,0,1.193-.055,2.83,2.83,0,0,1,.93-.063c.028,0,1.617.074,1.742.034.088-.028.771-.424.857-.46.218-.094.441-.275.746-.134a2.89,2.89,0,0,0,.739.228.529.529,0,0,1,.308-.1l-4.26-7.351a1.147,1.147,0,0,0-2.041-.016" transform="translate(-464.481 -173.009)" fill="url(#linear-gradient)"/>
        <path id="Union_2" data-name="Union 2" d="M33.181,4.874a1.614,1.614,0,0,1-.95-.314,1.066,1.066,0,0,1-.424-.886v-.9h.6v.9a.5.5,0,0,0,.212.449.92.92,0,0,0,.575.176,2.449,2.449,0,0,0,.838-.142V1.713c0-.2-.145-.45-.825-.608-.3-.071-.8-.339-.8-.785V.093h.576V.214c0,.238.563.373.6.389C34.233.8,34.6,1.151,34.6,1.7V4.574l-.12.037a4.376,4.376,0,0,1-1.3.263Zm-7.33,0a1.6,1.6,0,0,1-.945-.314,1.061,1.061,0,0,1-.424-.886v-.9h.6v.9a.5.5,0,0,0,.207.449.929.929,0,0,0,.577.176,2.46,2.46,0,0,0,.838-.142V1.713c0-.2-.146-.45-.825-.608-.3-.071-.8-.339-.8-.785V.093h.57V.214c0,.238.568.373.6.389.655.2,1.021.549,1.021,1.094V4.574l-.117.037a4.387,4.387,0,0,1-1.3.263Zm-3.56,0a4.662,4.662,0,0,1-1.368-.209l-.107-.035V.093h.578V4.206a3.2,3.2,0,0,0,.9.111.969.969,0,0,0,.614-.2.57.57,0,0,0,.237-.5V3.362a1.768,1.768,0,0,0-.211-1l-.11-.116.47-.429.1.136a2.669,2.669,0,0,1,.335,1.405v.223a1.134,1.134,0,0,1-.439.942,1.7,1.7,0,0,1-.991.346Zm-6.058,0h0a4.68,4.68,0,0,1-1.369-.209l-.11-.035V.093h.586V4.206a3.171,3.171,0,0,0,.893.111.972.972,0,0,0,.614-.2.574.574,0,0,0,.237-.5V3.362a1.768,1.768,0,0,0-.211-1l-.112-.116.466-.429.1.136a2.611,2.611,0,0,1,.339,1.405v.223a1.127,1.127,0,0,1-.443.942,1.7,1.7,0,0,1-.986.346Zm12.316-.308a1.089,1.089,0,0,1-.444-.94V.31l.111-.032A4.474,4.474,0,0,1,29.6,0a1.651,1.651,0,0,1,1,.33,1.111,1.111,0,0,1,.448.932V2.407a1.147,1.147,0,0,1-.457.95,1.639,1.639,0,0,1-1,.322h-.026a1.7,1.7,0,0,1-.891-.234v.188a.542.542,0,0,0,.285.517A1.155,1.155,0,0,0,29.7,4.3a1.337,1.337,0,0,0,.7-.268l.118-.091.387.373-.126.12a1.73,1.73,0,0,1-1.222.437A1.685,1.685,0,0,1,28.549,4.566ZM28.681.73V2.9a2.62,2.62,0,0,0,.9.2,1.134,1.134,0,0,0,.637-.2.53.53,0,0,0,.227-.487V1.255A.536.536,0,0,0,30.216.77.983.983,0,0,0,29.6.578,2.594,2.594,0,0,0,28.681.73ZM7.283,4.6V1.3a1.238,1.238,0,0,1,1.4-1.25H9.908V.612H8.683c-.524,0-.819.251-.819.684V1.83a1.455,1.455,0,0,1,.871-.23,1.33,1.33,0,0,1,1.457,1.248v.777A1.313,1.313,0,0,1,8.756,4.873,4.719,4.719,0,0,1,7.283,4.6Zm.58-2.259V4.225a3.043,3.043,0,0,0,.892.107A.765.765,0,0,0,9.6,3.625V2.841c.007-.443-.428-.655-.863-.665A2.5,2.5,0,0,0,7.864,2.342ZM41.813,4.866A1.493,1.493,0,0,1,40.3,3.4V1.3A1.175,1.175,0,0,1,40.72.345a1.469,1.469,0,0,1,1-.311,2.054,2.054,0,0,1,.619.115,1.207,1.207,0,0,1,.4.274,1.257,1.257,0,0,1,.4-.274,2.084,2.084,0,0,1,.62-.115,1.461,1.461,0,0,1,1.006.311,1.169,1.169,0,0,1,.42.956V2.5h-.573V1.315a.6.6,0,0,0-.382-.644,1.04,1.04,0,0,0-.783-.049.569.569,0,0,0-.436.439c0,.018,0,.043,0,.074V2.19H42.48l0-1.055a.607.607,0,0,0-.007-.084.558.558,0,0,0-.431-.429,1.041,1.041,0,0,0-.783.049.6.6,0,0,0-.382.631V3.279a.959.959,0,0,0,1.014,1.053l.86-.01c1.006,0,1.465-.011,1.747-.318l.1-.112.4.358-.1.115c-.467.507-1.084.507-2.112.507C42.78,4.873,42.077,4.866,41.813,4.866Zm24.755.007a1.609,1.609,0,0,1-.947-.309,1.076,1.076,0,0,1-.426-.89v-.5h.6v.5A.5.5,0,0,0,66,4.122a.933.933,0,0,0,.575.177,2.451,2.451,0,0,0,.841-.143V2.885c0-.205-.032-.452-.713-.612a.725.725,0,0,1-.525-.78V1.276H65.5V.706h.682V.093h.572V.706h.68v.571h-.68v.1c0,.333.209.381.248.391.65.2.987.548.987,1.095V4.574l-.116.037a4.372,4.372,0,0,1-1.3.262Zm6.33-.229a1.418,1.418,0,0,1-.57-.66l-.064-.139.495-.295.075.18a.8.8,0,0,0,.343.383,1.1,1.1,0,0,0,.549.138.87.87,0,0,0,.614-.232.814.814,0,0,0,.237-.654V1.2c0-.137-.029-.6-.5-.6s-.5.408-.5.6V2.308h-.616v-1.1c0-.208-.033-.616-.5-.616l-.02,0v0h-.409V.026h.428a1.122,1.122,0,0,1,.812.419,1.124,1.124,0,0,1,.813-.419c.836,0,1.112.655,1.112,1.344v2a1.613,1.613,0,0,1-.22.824,1.4,1.4,0,0,1-.548.513,1.593,1.593,0,0,1-.7.157A1.566,1.566,0,0,1,72.9,4.644Zm-22.76,0a1.411,1.411,0,0,1-.569-.66L49.5,3.844,50,3.55l.075.18a.8.8,0,0,0,.343.383,1.1,1.1,0,0,0,.549.138.873.873,0,0,0,.614-.231.815.815,0,0,0,.234-.655V1.387a.687.687,0,0,0-.244-.556A.88.88,0,0,0,51,.633a1.129,1.129,0,0,0-.5.114.758.758,0,0,0-.288.326l-.1.179L49.659.925,49.715.8a1.177,1.177,0,0,1,.5-.585,1.741,1.741,0,0,1,.8-.193,1.486,1.486,0,0,1,.978.349,1.353,1.353,0,0,1,.441,1.012V3.365a1.614,1.614,0,0,1-.221.823,1.4,1.4,0,0,1-.548.513,1.593,1.593,0,0,1-.7.157A1.564,1.564,0,0,1,50.138,4.644Zm-45.977,0a1.408,1.408,0,0,1-.57-.66L3.53,3.844l.492-.294.079.18a.758.758,0,0,0,.344.383,1.082,1.082,0,0,0,.545.138.879.879,0,0,0,.617-.231.824.824,0,0,0,.231-.655l0-1.979A.693.693,0,0,0,5.595.831a.87.87,0,0,0-.569-.2,1.123,1.123,0,0,0-.5.114.758.758,0,0,0-.288.326l-.093.179L3.686.925,3.738.8a1.173,1.173,0,0,1,.5-.585,1.762,1.762,0,0,1,.8-.193,1.467,1.467,0,0,1,.975.349,1.331,1.331,0,0,1,.443,1.012V3.365a1.553,1.553,0,0,1-.22.823,1.407,1.407,0,0,1-.546.513,1.618,1.618,0,0,1-.7.157A1.573,1.573,0,0,1,4.161,4.644Zm33.961.212a4.56,4.56,0,0,1-1.363-.2l-.105-.03V2.24a2.875,2.875,0,0,1-.453.033,1.09,1.09,0,0,1-.682-.239.779.779,0,0,1-.309-.65V.925A.784.784,0,0,1,35.52.272,1.127,1.127,0,0,1,36.2.034a2.962,2.962,0,0,1,.919.141l.11.033V2.083a2.458,2.458,0,0,1,.882-.174h.025a1.535,1.535,0,0,1,.965.315,1.1,1.1,0,0,1,.446.91v.45a1.123,1.123,0,0,1-.439.928,1.652,1.652,0,0,1-.98.344Zm-.9-2.169V4.206a3.507,3.507,0,0,0,.9.107.982.982,0,0,0,.613-.2.582.582,0,0,0,.232-.505V3.15a.532.532,0,0,0-.227-.48,1.113,1.113,0,0,0-.634-.193A2.324,2.324,0,0,0,37.226,2.688ZM35.883.679a.222.222,0,0,0-.107.233v.482c0,.13.013.163.107.231s.141.073.319.073a2.536,2.536,0,0,0,.453-.042V.646A2.646,2.646,0,0,0,36.2.607C36.024.607,35.971.612,35.883.679ZM53.252,3.992l-.063-.142.492-.3.079.185a.946.946,0,0,0,.9.536c.422,0,.878-.2.878-.668V3.278c0-.474-.456-.679-.863-.679h-.347V2.033h.09c.545,0,.869-.143.869-.692,0-.666-.462-.714-.667-.714a.863.863,0,0,0-.443.116.722.722,0,0,0-.287.329l-.095.181L53.342.919,53.4.793a1.173,1.173,0,0,1,.5-.577,1.406,1.406,0,0,1,.731-.2,1.339,1.339,0,0,1,.923.351,1.2,1.2,0,0,1,.329.979,1.141,1.141,0,0,1-.387.881,1.145,1.145,0,0,1,.626,1.043v.352h0a1.321,1.321,0,0,1-1.457,1.232A1.445,1.445,0,0,1,53.252,3.992Zm-7.375,0-.063-.142.492-.3.079.185a.947.947,0,0,0,.9.536c.422,0,.878-.2.878-.668V3.278c0-.474-.456-.679-.863-.679h-.347V2.033h.09c.545,0,.868-.143.868-.692,0-.666-.462-.714-.667-.714A.863.863,0,0,0,46.8.742a.723.723,0,0,0-.287.329l-.095.181L45.967.919l.056-.126a1.172,1.172,0,0,1,.5-.577,1.406,1.406,0,0,1,.731-.2,1.339,1.339,0,0,1,.923.351,1.2,1.2,0,0,1,.329.979,1.141,1.141,0,0,1-.387.881,1.145,1.145,0,0,1,.626,1.043v.352h0a1.321,1.321,0,0,1-1.457,1.232A1.445,1.445,0,0,1,45.877,3.992Zm-45.814,0L0,3.85l.492-.3.079.185a.946.946,0,0,0,.9.536c.422,0,.878-.2.878-.668V3.278c0-.474-.456-.679-.863-.679H1.14V2.033h.09c.545,0,.869-.143.869-.692,0-.666-.462-.714-.667-.714A.863.863,0,0,0,.989.742.723.723,0,0,0,.7,1.072l-.094.181L.153.919.208.793a1.172,1.172,0,0,1,.5-.577,1.4,1.4,0,0,1,.731-.2,1.339,1.339,0,0,1,.923.351,1.2,1.2,0,0,1,.329.979,1.14,1.14,0,0,1-.387.881,1.145,1.145,0,0,1,.626,1.043v.352h0A1.321,1.321,0,0,1,1.472,4.856,1.445,1.445,0,0,1,.063,3.992Zm78.29.864a1.444,1.444,0,0,1-1.41-.864l-.062-.142.492-.3.08.186a.94.94,0,0,0,.9.536h.523c.422,0,.882-.2.882-.668V3.3c0-.475-.457-.678-.865-.678h-.344V2.052h.085c.546,0,.868-.218.868-.662,0-.669-.461-.766-.665-.766A.856.856,0,0,0,78.4.742a.669.669,0,0,0-.251.27,1.09,1.09,0,0,1,.045.292c0,.549-.141,1.42-1.253,1.42s-1.247-.885-1.247-1.42A1.16,1.16,0,0,1,76.936.018,1.132,1.132,0,0,1,77.9.45a1.285,1.285,0,0,1,.951-.432,1.336,1.336,0,0,1,.922.351A1.314,1.314,0,0,1,80.1,1.4a1.063,1.063,0,0,1-.389.851,1.144,1.144,0,0,1,.63,1.042v.335a1.33,1.33,0,0,1-1.462,1.232ZM76.282,1.3v.015c0,.74.4.876.654.876s.655-.093.655-.876V1.3c0-.721-.4-.67-.655-.67h-.1C76.591.625,76.282.665,76.282,1.3Zm-7.537,2.31V3.149a1.235,1.235,0,0,1,1.318-1.2c.29,0,.582-.194.582-.68a.663.663,0,0,0-.632-.641.846.846,0,0,0-.44.118.728.728,0,0,0-.289.33l-.093.181L68.737.919,68.788.8a1.2,1.2,0,0,1,.5-.579,1.446,1.446,0,0,1,.733-.2,1.328,1.328,0,0,1,.918.351,1.2,1.2,0,0,1,.33.9.9.9,0,0,1-.451.828,1.1,1.1,0,0,1,.825,1.056v.457a1.467,1.467,0,0,1-2.9,0Zm.578-.457v.457c0,.465.453.668.873.668s.87-.2.87-.668V3.149c0-.472-.453-.673-.87-.675S69.323,2.677,69.323,3.149ZM61.2,4.779V1.31a.6.6,0,0,0-.381-.639,1.034,1.034,0,0,0-.783-.049.557.557,0,0,0-.432.44.271.271,0,0,0-.006.073V2.19h-.538l0-1.055a.809.809,0,0,0,0-.083.559.559,0,0,0-.43-.429,1.036,1.036,0,0,0-.784.049.6.6,0,0,0-.385.632V4.779h-.572V1.3A1.169,1.169,0,0,1,57.3.345,1.474,1.474,0,0,1,58.306.034a2.032,2.032,0,0,1,.614.114,1.22,1.22,0,0,1,.4.274,1.221,1.221,0,0,1,.4-.274,2.031,2.031,0,0,1,.617-.114,1.45,1.45,0,0,1,1,.311,1.159,1.159,0,0,1,.423.956V4.779Zm22.22,0V1.3c0-.468-.454-.674-.863-.674s-.872.206-.872.674V4.778H81.1V1.3a1.467,1.467,0,0,1,2.9,0V4.778Zm-70.074,0V1.3c0-.468-.455-.674-.862-.674S11.6.829,11.6,1.3V4.778H11.02V1.3A1.321,1.321,0,0,1,12.479.045,1.311,1.311,0,0,1,13.922,1.3V4.778Z" transform="translate(0 32.126)" fill="#292562" stroke="rgba(0,0,0,0)" stroke-width="1"/>
      </g>
    </g>
  </g>
</svg>
