<svg xmlns="http://www.w3.org/2000/svg" width="20" height="20" viewBox="0 0 20 20">
  <path id="phone-in-talk-outline_1_" data-name="phone-in-talk-outline (1)" d="M21.889,16.889a12.088,12.088,0,0,1-4-.667h-.333a1.009,1.009,0,0,0-.778.333L14.333,19A17.3,17.3,0,0,1,7,11.667L9.444,9.222a.885.885,0,0,0,.222-1.111,15.8,15.8,0,0,1-.556-4A1.2,1.2,0,0,0,8,3H4.111A1.2,1.2,0,0,0,3,4.111,18.873,18.873,0,0,0,21.889,23,1.2,1.2,0,0,0,23,21.889V18a1.2,1.2,0,0,0-1.111-1.111M5.222,5.222H6.889a22.188,22.188,0,0,0,.556,2.889L6.111,9.444a17.842,17.842,0,0,1-.889-4.222M20.778,20.778a17.842,17.842,0,0,1-4.222-.889l1.333-1.333A12.079,12.079,0,0,0,20.778,19v1.778M16.333,13h2.222A5.556,5.556,0,0,0,13,7.444V9.667A3.333,3.333,0,0,1,16.333,13m4.444,0H23A9.98,9.98,0,0,0,13,3V5.222A7.779,7.779,0,0,1,20.778,13Z" transform="translate(-3 -3)" fill="#292562"/>
</svg>
