<svg id="surface1" xmlns="http://www.w3.org/2000/svg" width="18" height="18" viewBox="0 0 18 18">
  <path id="Path_6611" data-name="Path 6611" d="M13.888,11.713A7.321,7.321,0,0,0,12.08,1.365,7.693,7.693,0,0,0,1.5,3.135,7.321,7.321,0,0,0,3.313,13.482a7.726,7.726,0,0,0,8.242.333l3.816,3.7a1.612,1.612,0,0,0,2.244.056,1.53,1.53,0,0,0,.058-2.2c-.019-.02-.038-.038-.058-.057Zm-6.2.507A4.842,4.842,0,0,1,2.8,7.435,4.841,4.841,0,0,1,7.688,2.646a4.841,4.841,0,0,1,4.893,4.778,4.842,4.842,0,0,1-4.886,4.8Zm0,0" transform="translate(-0.109 0)" fill="#dee0e8"/>
</svg>
