<svg xmlns="http://www.w3.org/2000/svg" width="20" height="23" viewBox="0 0 20 23">
  <g id="black-male-user-symbol_1_" data-name="black-male-user-symbol (1)" transform="translate(-3.467)">
    <path id="Path_6544" data-name="Path 6544" d="M23.467,18.158l-.08.093A13.049,13.049,0,0,1,13.467,23a13.049,13.049,0,0,1-9.92-4.749l-.08-.093.019-.119a9.849,9.849,0,0,1,4.9-7.273l.188-.1.15.152a6.7,6.7,0,0,0,9.48,0l.15-.152.188.1a9.851,9.851,0,0,1,4.9,7.273Zm-10-6.672A5.858,5.858,0,0,0,19.42,5.743,5.858,5.858,0,0,0,13.467,0,5.858,5.858,0,0,0,7.514,5.743,5.859,5.859,0,0,0,13.467,11.486Z" fill="#292562"/>
  </g>
</svg>
