<svg xmlns="http://www.w3.org/2000/svg" width="21.403" height="14.401" viewBox="0 0 21.403 14.401">
  <path id="video-camera-alt_1_" data-name="video-camera-alt (1)" d="M20.043,6.221a1.724,1.724,0,0,0-1.818.165.883.883,0,0,0-.1.084L16.591,8.021A4.367,4.367,0,0,0,12.252,4H4.376A4.379,4.379,0,0,0,0,8.376v5.251A4.381,4.381,0,0,0,4.376,18h7.876a4.367,4.367,0,0,0,4.342-4.049l1.537,1.535a1.031,1.031,0,0,0,.094.081A1.737,1.737,0,0,0,21,14.179v-6.4a1.726,1.726,0,0,0-.96-1.553ZM12.252,16.252H4.376A2.629,2.629,0,0,1,1.75,13.626V8.376A2.629,2.629,0,0,1,4.376,5.75h7.876a2.629,2.629,0,0,1,2.625,2.625v5.251A2.629,2.629,0,0,1,12.252,16.252Zm4.376-4.74V10.471l2.625-2.65.022,6.334L16.627,11.51Z" transform="translate(0.2 -3.801)" fill="#292562" stroke="#292562" stroke-width="0.4"/>
</svg>
